REM DIRINDEX 1\2,1\3,1\4,1\5
REM DIRNAME cjc044,folder01,folder02,folder03,folder04
TITLE ""
FILE "1800_178.mp3" MP3
  TRACK 01 AUDIO
    TITLE "2:cjc044_6111"
    INDEX 01 00:00:00
  TRACK 02 AUDIO
    TITLE "0:"
    INDEX 01 00:01:17
  TRACK 03 AUDIO
    TITLE "3:cjc044_6112"
    INDEX 01 00:01:66
  TRACK 04 AUDIO
    TITLE "0:"
    INDEX 01 00:03:23
  TRACK 05 AUDIO
    TITLE "4:cjc044_6113"
    INDEX 01 00:03:70
  TRACK 06 AUDIO
    TITLE "0:"
    INDEX 01 00:05:28
  TRACK 07 AUDIO
    TITLE "2:cjc044_6114"
    INDEX 01 00:07:05
  TRACK 08 AUDIO
    TITLE "0:"
    INDEX 01 00:08:38
  TRACK 09 AUDIO
    TITLE "3:cjc044_6115"
    INDEX 01 00:09:12
  TRACK 10 AUDIO
    TITLE "0:"
    INDEX 01 00:10:19
  TRACK 11 AUDIO
    TITLE "4:cjc044_6116"
    INDEX 01 00:10:65
  TRACK 12 AUDIO
    TITLE "0:"
    INDEX 01 00:12:24
  TRACK 13 AUDIO
    TITLE "2:cjc044_6117"
    INDEX 01 00:13:71
  TRACK 14 AUDIO
    TITLE "0:"
    INDEX 01 00:15:07
  TRACK 15 AUDIO
    TITLE "3:cjc044_6118"
    INDEX 01 00:15:54
  TRACK 16 AUDIO
    TITLE "0:"
    INDEX 01 00:17:27
  TRACK 17 AUDIO
    TITLE "4:cjc044_6119"
    INDEX 01 00:17:72
  TRACK 18 AUDIO
    TITLE "0:"
    INDEX 01 00:19:07
  TRACK 19 AUDIO
    TITLE "2:cjc044_6120"
    INDEX 01 00:20:57
  TRACK 20 AUDIO
    TITLE "0:"
    INDEX 01 00:21:66
  TRACK 21 AUDIO
    TITLE "3:cjc044_6121"
    INDEX 01 00:22:38
  TRACK 22 AUDIO
    TITLE "0:"
    INDEX 01 00:23:38
  TRACK 23 AUDIO
    TITLE "4:cjc044_6122"
    INDEX 01 00:24:10
  TRACK 24 AUDIO
    TITLE "0:"
    INDEX 01 00:25:19
  TRACK 25 AUDIO
    TITLE "2:cjc044_6123"
    INDEX 01 00:26:64
  TRACK 26 AUDIO
    TITLE "0:"
    INDEX 01 00:28:12
  TRACK 27 AUDIO
    TITLE "3:cjc044_6124"
    INDEX 01 00:28:60
  TRACK 28 AUDIO
    TITLE "0:"
    INDEX 01 00:30:12
  TRACK 29 AUDIO
    TITLE "4:cjc044_6125"
    INDEX 01 00:30:59
  TRACK 30 AUDIO
    TITLE "0:"
    INDEX 01 00:32:09
  TRACK 31 AUDIO
    TITLE "2:cjc044_6126"
    INDEX 01 00:33:60
  TRACK 32 AUDIO
    TITLE "0:"
    INDEX 01 00:35:17
  TRACK 33 AUDIO
    TITLE "3:cjc044_6127"
    INDEX 01 00:35:64
  TRACK 34 AUDIO
    TITLE "0:"
    INDEX 01 00:37:24
  TRACK 35 AUDIO
    TITLE "4:cjc044_6128"
    INDEX 01 00:37:71
  TRACK 36 AUDIO
    TITLE "0:"
    INDEX 01 00:39:31
  TRACK 37 AUDIO
    TITLE "2:cjc044_6129"
    INDEX 01 00:41:04
  TRACK 38 AUDIO
    TITLE "0:"
    INDEX 01 00:42:31
  TRACK 39 AUDIO
    TITLE "3:cjc044_6130"
    INDEX 01 00:43:03
  TRACK 40 AUDIO
    TITLE "0:"
    INDEX 01 00:44:18
  TRACK 41 AUDIO
    TITLE "4:cjc044_6131"
    INDEX 01 00:44:65
  TRACK 42 AUDIO
    TITLE "0:"
    INDEX 01 00:46:17
  TRACK 43 AUDIO
    TITLE "2:cjc044_6132"
    INDEX 01 00:47:68
  TRACK 44 AUDIO
    TITLE "0:"
    INDEX 01 00:49:21
  TRACK 45 AUDIO
    TITLE "3:cjc044_6133"
    INDEX 01 00:49:67
  TRACK 46 AUDIO
    TITLE "0:"
    INDEX 01 00:50:66
  TRACK 47 AUDIO
    TITLE "4:cjc044_6134"
    INDEX 01 00:51:38
  TRACK 48 AUDIO
    TITLE "0:"
    INDEX 01 00:52:67
  TRACK 49 AUDIO
    TITLE "2:cjc044_6135"
    INDEX 01 00:54:44
  TRACK 50 AUDIO
    TITLE "0:"
    INDEX 01 00:55:67
  TRACK 51 AUDIO
    TITLE "3:cjc044_6136"
    INDEX 01 00:56:37
  TRACK 52 AUDIO
    TITLE "0:"
    INDEX 01 00:57:56
  TRACK 53 AUDIO
    TITLE "4:cjc044_6137"
    INDEX 01 00:58:30
  TRACK 54 AUDIO
    TITLE "0:"
    INDEX 01 00:59:53
  TRACK 55 AUDIO
    TITLE "2:cjc044_6138"
    INDEX 01 01:01:27
  TRACK 56 AUDIO
    TITLE "0:"
    INDEX 01 01:02:40
  TRACK 57 AUDIO
    TITLE "3:cjc044_6139"
    INDEX 01 01:03:14
  TRACK 58 AUDIO
    TITLE "0:"
    INDEX 01 01:04:03
  TRACK 59 AUDIO
    TITLE "4:cjc044_6140"
    INDEX 01 01:04:52
  TRACK 60 AUDIO
    TITLE "0:"
    INDEX 01 01:05:68
  TRACK 61 AUDIO
    TITLE "2:cjc044_6141"
    INDEX 01 01:07:39
  TRACK 62 AUDIO
    TITLE "0:"
    INDEX 01 01:08:74
  TRACK 63 AUDIO
    TITLE "3:cjc044_6142"
    INDEX 01 01:09:50
  TRACK 64 AUDIO
    TITLE "0:"
    INDEX 01 01:10:73
  TRACK 65 AUDIO
    TITLE "4:cjc044_6143"
    INDEX 01 01:11:43
  TRACK 66 AUDIO
    TITLE "0:"
    INDEX 01 01:13:08
  TRACK 67 AUDIO
    TITLE "2:cjc044_6144"
    INDEX 01 01:14:55
  TRACK 68 AUDIO
    TITLE "0:"
    INDEX 01 01:16:05
  TRACK 69 AUDIO
    TITLE "3:cjc044_6145"
    INDEX 01 01:16:54
  TRACK 70 AUDIO
    TITLE "0:"
    INDEX 01 01:17:47
  TRACK 71 AUDIO
    TITLE "4:cjc044_6146"
    INDEX 01 01:18:19
  TRACK 72 AUDIO
    TITLE "0:"
    INDEX 01 01:19:44
  TRACK 73 AUDIO
    TITLE "2:cjc044_6147"
    INDEX 01 01:21:16
  TRACK 74 AUDIO
    TITLE "0:"
    INDEX 01 01:22:33
  TRACK 75 AUDIO
    TITLE "3:cjc044_6148"
    INDEX 01 01:23:09
  TRACK 76 AUDIO
    TITLE "0:"
    INDEX 01 01:24:43
  TRACK 77 AUDIO
    TITLE "4:cjc044_6149"
    INDEX 01 01:25:11
  TRACK 78 AUDIO
    TITLE "0:"
    INDEX 01 01:26:30
  TRACK 79 AUDIO
    TITLE "2:cjc044_6150"
    INDEX 01 01:28:04
  TRACK 80 AUDIO
    TITLE "0:"
    INDEX 01 01:29:29
  TRACK 81 AUDIO
    TITLE "3:cjc044_6151"
    INDEX 01 01:30:01
  TRACK 82 AUDIO
    TITLE "0:"
    INDEX 01 01:31:04
  TRACK 83 AUDIO
    TITLE "4:cjc044_6152"
    INDEX 01 01:31:51
  TRACK 84 AUDIO
    TITLE "0:"
    INDEX 01 01:33:03
  TRACK 85 AUDIO
    TITLE "2:cjc044_6153"
    INDEX 01 01:34:50
  TRACK 86 AUDIO
    TITLE "0:"
    INDEX 01 01:35:65
  TRACK 87 AUDIO
    TITLE "3:cjc044_6154"
    INDEX 01 01:36:41
  TRACK 88 AUDIO
    TITLE "0:"
    INDEX 01 01:37:32
  TRACK 89 AUDIO
    TITLE "4:cjc044_6155"
    INDEX 01 01:38:04
  TRACK 90 AUDIO
    TITLE "0:"
    INDEX 01 01:39:21
  TRACK 91 AUDIO
    TITLE "2:cjc044_6156"
    INDEX 01 01:40:70
  TRACK 92 AUDIO
    TITLE "0:"
    INDEX 01 01:42:45
  TRACK 93 AUDIO
    TITLE "3:cjc044_6157"
    INDEX 01 01:43:17
  TRACK 94 AUDIO
    TITLE "0:"
    INDEX 01 01:44:23
  TRACK 95 AUDIO
    TITLE "4:cjc044_6158"
    INDEX 01 01:44:66
  TRACK 96 AUDIO
    TITLE "0:"
    INDEX 01 01:46:41
  TRACK 97 AUDIO
    TITLE "2:cjc044_6159"
    INDEX 01 01:48:12
  TRACK 98 AUDIO
    TITLE "0:"
    INDEX 01 01:49:24
  TRACK 99 AUDIO
    TITLE "3:cjc044_6160"
    INDEX 01 01:49:73
  TRACK 100 AUDIO
    TITLE "0:"
    INDEX 01 01:50:62
  TRACK 101 AUDIO
    TITLE "4:cjc044_6161"
    INDEX 01 01:51:32
  TRACK 102 AUDIO
    TITLE "0:"
    INDEX 01 01:52:46
  TRACK 103 AUDIO
    TITLE "2:cjc044_6162"
    INDEX 01 01:54:19
  TRACK 104 AUDIO
    TITLE "0:"
    INDEX 01 01:55:36
  TRACK 105 AUDIO
    TITLE "3:cjc044_6163"
    INDEX 01 01:56:08
  TRACK 106 AUDIO
    TITLE "0:"
    INDEX 01 01:57:31
  TRACK 107 AUDIO
    TITLE "4:cjc044_6164"
    INDEX 01 01:58:05
  TRACK 108 AUDIO
    TITLE "0:"
    INDEX 01 01:59:22
  TRACK 109 AUDIO
    TITLE "2:cjc044_6165"
    INDEX 01 02:00:69
  TRACK 110 AUDIO
    TITLE "0:"
    INDEX 01 02:02:09
  TRACK 111 AUDIO
    TITLE "3:cjc044_6166"
    INDEX 01 02:02:56
  TRACK 112 AUDIO
    TITLE "0:"
    INDEX 01 02:03:63
  TRACK 113 AUDIO
    TITLE "4:cjc044_6167"
    INDEX 01 02:04:35
  TRACK 114 AUDIO
    TITLE "0:"
    INDEX 01 02:05:52
  TRACK 115 AUDIO
    TITLE "2:cjc044_6168"
    INDEX 01 02:07:22
  TRACK 116 AUDIO
    TITLE "0:"
    INDEX 01 02:08:41
  TRACK 117 AUDIO
    TITLE "3:cjc044_6169"
    INDEX 01 02:09:17
  TRACK 118 AUDIO
    TITLE "0:"
    INDEX 01 02:10:24
  TRACK 119 AUDIO
    TITLE "4:cjc044_6170"
    INDEX 01 02:10:71
  TRACK 120 AUDIO
    TITLE "0:"
    INDEX 01 02:12:17
